<svg width="29" height="16" viewBox="0 0 29 16" fill="none" xmlns="http://www.w3.org/2000/svg">
<g clip-path="url(#clip0_673_12)">
<path d="M4.81445 13.6816V2.5293C4.81445 1.9043 5.12695 1.5918 5.75195 1.5918H22.4121C23.0371 1.5918 23.3496 1.9043 23.3496 2.5293V13.6816H4.81445Z" fill="white" fill-opacity="0.2125"/>
<path d="M11.1328 1.5918H11.377C11.5234 1.5918 11.6016 1.66016 11.6016 1.82617V1.93359C11.6016 2.34375 11.875 2.61719 12.2852 2.61719H15.8984C16.2988 2.61719 16.5527 2.34375 16.5527 1.93359V1.82617C16.5527 1.66016 16.6309 1.5918 16.7969 1.5918H17.041V0.78125H11.1328V1.5918ZM0 14.7949C0 15.4102 0.498047 15.9082 1.10352 15.9082H27.0605C27.666 15.9082 28.1641 15.4102 28.1641 14.7949C28.1641 14.1797 27.666 13.6816 27.0605 13.6816H24.9219V2.08984C24.9219 0.722656 24.1895 0.0195312 22.832 0.0195312H5.33203C4.04297 0.0195312 3.24219 0.722656 3.24219 2.08984V13.6816H1.10352C0.498047 13.6816 0 14.1797 0 14.7949ZM4.81445 13.6816V2.5293C4.81445 1.9043 5.12695 1.5918 5.75195 1.5918H22.4121C23.0371 1.5918 23.3496 1.9043 23.3496 2.5293V13.6816H4.81445Z" fill="white" fill-opacity="0.85"/>
</g>
<defs>
<clipPath id="clip0_673_12">
<rect width="28.5254" height="15.9082" fill="white"/>
</clipPath>
</defs>
</svg>
